<svg width="256" height="256" viewBox="0 0 256 256" fill="none" xmlns="http://www.w3.org/2000/svg">
  <rect width="256" height="256" rx="48" fill="#070B10"/>
  <path d="M82 91C82 61.73 105.73 38 135 38C164.27 38 188 61.73 188 91C188 120.27 164.27 144 135 144H112" stroke="#CDFB50" stroke-width="18" stroke-linecap="square"/>
  <path d="M174 112C203.27 112 227 135.73 227 165C227 194.27 203.27 218 174 218H135V144" stroke="#8EA0B8" stroke-width="18" stroke-linecap="square"/>
  <path d="M48 218V121C48 91.73 71.73 68 101 68C130.27 68 154 91.73 154 121" stroke="#E8EEF7" stroke-width="18" stroke-linecap="square"/>
  <path d="M87 105H144" stroke="#E8EEF7" stroke-width="18" stroke-linecap="square"/>
  <path d="M101 105V184" stroke="#E8EEF7" stroke-width="18" stroke-linecap="square"/>
</svg>
